<?xml version="1.0" encoding="UTF-8" standalone="no"?>
<svg
   version="1.1"
   width="448"
   height="409.60001"
   x="0"
   y="0"
   viewBox="0 0 42 38.400001"
   xml:space="preserve"
   class=""
   id="svg3"
   sodipodi:docname="almacenar-b.svg"
   inkscape:version="1.3.2 (091e20e, 2023-11-25, custom)"
   xmlns:inkscape="http://www.inkscape.org/namespaces/inkscape"
   xmlns:sodipodi="http://sodipodi.sourceforge.net/DTD/sodipodi-0.dtd"
   xmlns="http://www.w3.org/2000/svg"
   xmlns:svg="http://www.w3.org/2000/svg"><defs
     id="defs3" /><sodipodi:namedview
     id="namedview3"
     pagecolor="#ffffff"
     bordercolor="#000000"
     borderopacity="0.25"
     inkscape:showpageshadow="2"
     inkscape:pageopacity="0.0"
     inkscape:pagecheckerboard="0"
     inkscape:deskcolor="#d1d1d1"
     inkscape:zoom="1.5878906"
     inkscape:cx="223.88192"
     inkscape:cy="206.87823"
     inkscape:window-width="1920"
     inkscape:window-height="1009"
     inkscape:window-x="-8"
     inkscape:window-y="-8"
     inkscape:window-maximized="1"
     inkscape:current-layer="svg3" /><g
     id="g3"
     transform="translate(-3,-4.6)"><path
       d="M 42.252,6.074 A 2,2 0 0 0 40.322,4.6 H 7.679 A 2,2 0 0 0 5.749,6.074 L 3,16.15 v 1.05 a 4.2,4.2 0 1 0 8.4,0 4.2,4.2 0 0 0 8.4,0 4.2,4.2 0 1 0 8.4,0 4.2,4.2 0 0 0 8.4,0 4.2,4.2 0 0 0 4.2,4.2 4.2,4.2 0 0 0 4.2,-4.2 V 16.15 Z M 13,29 h 22 v 2 H 13 Z"
       fill="#069dde"
       opacity="1"
       data-original="#000000"
       id="path1" /><path
       d="m 41,22.9 h -0.4 a 5.503,5.503 0 0 1 -4,-1.73 5.503,5.503 0 0 1 -4,1.73 h -0.4 a 5.503,5.503 0 0 1 -4,-1.73 5.503,5.503 0 0 1 -4,1.73 h -0.4 a 5.503,5.503 0 0 1 -4,-1.73 5.503,5.503 0 0 1 -4,1.73 h -0.4 a 5.503,5.503 0 0 1 -4,-1.73 5.503,5.503 0 0 1 -4,1.73 H 7 A 5.313,5.313 0 0 1 5,22.52 V 41 a 2.006,2.006 0 0 0 2,2 h 4 V 28 a 1,1 0 0 1 1,-1 h 24 a 1,1 0 0 1 1,1 v 15 h 4 a 2.006,2.006 0 0 0 2,-2 V 22.52 a 5.313,5.313 0 0 1 -2,0.38 z"
       fill="#069dde"
       opacity="1"
       data-original="#000000"
       id="path2" /><path
       d="M 13,33 H 35 V 43 H 13 Z"
       fill="#069dde"
       opacity="1"
       data-original="#000000"
       id="path3" /></g></svg>
