<?xml version="1.0" encoding="UTF-8" standalone="no"?>
<svg
   version="1.1"
   width="477.108"
   height="512"
   x="0"
   y="0"
   viewBox="0 0 477.108 512"
   xml:space="preserve"
   class=""
   id="svg1"
   sodipodi:docname="claqueta-b.svg"
   inkscape:version="1.3.2 (091e20e, 2023-11-25, custom)"
   xmlns:inkscape="http://www.inkscape.org/namespaces/inkscape"
   xmlns:sodipodi="http://sodipodi.sourceforge.net/DTD/sodipodi-0.dtd"
   xmlns="http://www.w3.org/2000/svg"
   xmlns:svg="http://www.w3.org/2000/svg"><defs
     id="defs1" /><sodipodi:namedview
     id="namedview1"
     pagecolor="#ffffff"
     bordercolor="#000000"
     borderopacity="0.25"
     inkscape:showpageshadow="2"
     inkscape:pageopacity="0.0"
     inkscape:pagecheckerboard="0"
     inkscape:deskcolor="#d1d1d1"
     inkscape:zoom="1.5878906"
     inkscape:cx="238.36654"
     inkscape:cy="256"
     inkscape:window-width="1920"
     inkscape:window-height="1009"
     inkscape:window-x="-8"
     inkscape:window-y="-8"
     inkscape:window-maximized="1"
     inkscape:current-layer="svg1" /><g
     id="g1"
     transform="translate(-17.446)"><path
       fill-rule="evenodd"
       d="M 44.389,220.363 156.557,186.07 68.975,116.482 17.446,132.236 Z m 0,0 h 450.165 v 257.961 c 0,18.522 -15.155,33.676 -33.677,33.676 H 78.066 C 59.544,512 44.389,496.845 44.389,478.324 Z M 321.993,366.181 269.471,335.858 216.95,305.535 v 121.293 l 52.521,-30.323 z M 196.102,173.979 108.52,104.391 191.997,78.87 c 29.193,23.196 58.389,46.391 87.581,69.588 z m 123.022,-37.611 83.477,-25.521 -2.527,-2.008 L 315.02,41.258 231.543,66.78 Z M 442.146,98.756 354.565,29.168 449.97,0 476.913,88.127 Z"
       clip-rule="evenodd"
       fill="#069dde"
       opacity="1"
       data-original="#000000"
       class=""
       id="path1" /></g></svg>
