<?xml version="1.0" encoding="UTF-8" standalone="no"?>
<svg
   version="1.1"
   width="448"
   height="320"
   x="0"
   y="0"
   viewBox="0 0 28 20"
   xml:space="preserve"
   class=""
   id="svg1"
   sodipodi:docname="control-de-juego-b.svg"
   inkscape:version="1.3.2 (091e20e, 2023-11-25, custom)"
   xmlns:inkscape="http://www.inkscape.org/namespaces/inkscape"
   xmlns:sodipodi="http://sodipodi.sourceforge.net/DTD/sodipodi-0.dtd"
   xmlns="http://www.w3.org/2000/svg"
   xmlns:svg="http://www.w3.org/2000/svg"><defs
     id="defs1" /><sodipodi:namedview
     id="namedview1"
     pagecolor="#ffffff"
     bordercolor="#000000"
     borderopacity="0.25"
     inkscape:showpageshadow="2"
     inkscape:pageopacity="0.0"
     inkscape:pagecheckerboard="0"
     inkscape:deskcolor="#d1d1d1"
     inkscape:zoom="1.5878906"
     inkscape:cx="223.88192"
     inkscape:cy="160.27552"
     inkscape:window-width="1920"
     inkscape:window-height="1009"
     inkscape:window-x="-8"
     inkscape:window-y="-8"
     inkscape:window-maximized="1"
     inkscape:current-layer="svg1" /><g
     id="g1"
     transform="translate(-2,-6)"><path
       d="M 28.903,13.632 C 28.297,9.253 24.661,6 20.374,6 H 11.626 C 7.339,6 3.704,9.253 3.097,13.632 3.028,14.131 2,21.376 2,21.88 2,24.155 3.788,26 5.993,26 7.506,26 8.888,25.118 9.565,23.722 L 12,19 h 8 l 2.435,4.722 C 23.111,25.118 24.494,26 26.007,26 28.212,26 30,24.155 30,21.88 30,21.376 28.972,14.131 28.903,13.632 Z M 22,9 A 1.3335,1.3335 0 1 1 22,11.667 1.3335,1.3335 0 0 1 22,9 Z m -9,5 h -2 v 2 H 9 V 14 H 7 v -2 h 2 v -2 h 2 v 2 h 2 z m 6.333,0.333 a 1.3335,1.3335 0 1 1 0,-2.667 1.3335,1.3335 0 0 1 0,2.667 z M 22,17 A 1.3335,1.3335 0 1 1 22,14.333 1.3335,1.3335 0 0 1 22,17 Z m 2.667,-2.667 a 1.3335,1.3335 0 1 1 0,-2.667 1.3335,1.3335 0 0 1 0,2.667 z"
       fill="#069dde"
       opacity="1"
       data-original="#000000"
       id="path1" /></g></svg>
