<?xml version="1.0" encoding="UTF-8" standalone="no"?>
<svg
   version="1.1"
   width="459.55313"
   height="312.99243"
   x="0"
   y="0"
   viewBox="0 0 134.63471 91.697001"
   xml:space="preserve"
   id="svg1"
   sodipodi:docname="grupo.svg"
   inkscape:version="1.3.2 (091e20e, 2023-11-25, custom)"
   xmlns:inkscape="http://www.inkscape.org/namespaces/inkscape"
   xmlns:sodipodi="http://sodipodi.sourceforge.net/DTD/sodipodi-0.dtd"
   xmlns="http://www.w3.org/2000/svg"
   xmlns:svg="http://www.w3.org/2000/svg"><defs
     id="defs1" /><sodipodi:namedview
     id="namedview1"
     pagecolor="#ffffff"
     bordercolor="#000000"
     borderopacity="0.25"
     inkscape:showpageshadow="2"
     inkscape:pageopacity="0.0"
     inkscape:pagecheckerboard="0"
     inkscape:deskcolor="#d1d1d1"
     inkscape:zoom="1.5878906"
     inkscape:cx="229.54982"
     inkscape:cy="156.49692"
     inkscape:window-width="1920"
     inkscape:window-height="1009"
     inkscape:window-x="-8"
     inkscape:window-y="-8"
     inkscape:window-maximized="1"
     inkscape:current-layer="svg1" /><g
     id="g1"
     transform="translate(-7.6826471,-29.153)"><path
       d="m 123.46,104.52 c 1.21,2.65 1.3,5.68 0.07,8.55 -2.03,4.73 -7.061,7.78 -12.82,7.78 H 39.29 c -5.76,0 -10.79,-3.05 -12.81,-7.78 -1.23,-2.87 -1.15,-5.89 0.06,-8.55 0.91,-2.01 2.47,-3.8 4.6,-5.16 L 66.83,76.12 c 2.42,-1.56 5.24,-2.37 8.17,-2.37 2.92,0 5.75,0.81 8.16,2.36 l 35.75,23.28 c 2.1,1.34 3.65,3.13 4.55,5.13 z m 14.99,-15.2 -19.71,-12.8 c -3.28,-2.2 -7.7,-2.19 -10.95,-0.03 l -4.67,3.03 20.14,13.16 c 1.71,1.1 3.21,2.4 4.45,3.84 2.06,2.35 3.48,5.09 4.18,8 h 1.15 c 3.89,0 7.29,-2.12 8.67,-5.41 1.5,-3.55 0.15,-7.57 -3.26,-9.79 z M 75.001,69.912 c 11.211,0 20.331,-9.163 20.331,-20.426 0,-11.211 -9.12,-20.333 -20.331,-20.333 -11.212,0 -20.333,9.121 -20.333,20.333 0,11.263 9.121,20.426 20.333,20.426 z m 38.295,1.845 c 8.667,0 15.718,-7.052 15.718,-15.72 0,-8.667 -7.051,-15.719 -15.718,-15.719 -8.72,0 -15.813,7.051 -15.813,15.719 -0.001,8.668 7.093,15.72 15.813,15.72 z m -76.5,0 c 8.668,0 15.721,-7.052 15.721,-15.72 0,-8.667 -7.053,-15.719 -15.721,-15.719 -8.718,0 -15.811,7.051 -15.811,15.719 0,8.668 7.093,15.72 15.811,15.72 z m 10.084,7.763 -4.63,-3 C 38.96,74.33 34.54,74.33 31.29,76.49 L 11.55,89.32 c -3.41,2.22 -4.76,6.24 -3.26,9.79 1.38,3.29 4.82,5.41 8.76,5.41 h 1.07 c 0.7,-2.9 2.12,-5.64 4.17,-8 1.26,-1.45 2.76,-2.76 4.49,-3.87 z"
       fill="#ffffff"
       opacity="1"
       data-original="#000000"
       id="path1" /></g></svg>
